# xmcd
#
# Track frame offsets: 
#        180
#        19278
#        38371
#        60802
#
# Disc length: 1111 seconds
#
# Revision: 0
# Processed by: cddbd v1.5.2PL0 Copyright (c) Steve Scherf et al.
# Submitted via: ExactAudioCopy v0.99pb3
#
DISCID=20045504
DTITLE=Kristina Isaac - Is It True
DYEAR=1993
DGENRE=R and B
TTITLE0=Is It True
TTITLE1=I Understand
TTITLE2=Is It True (Intrumental Extended)
TTITLE3=Is It True (Remix)
EXTD=
EXTT0=
EXTT1=
EXTT2=
EXTT3=
PLAYORDER=
